%TF.GenerationSoftware,KiCad,Pcbnew,9.0.8*%
%TF.CreationDate,2026-06-05T21:26:51-07:00*%
%TF.ProjectId,Simple Alarm Clock,53696d70-6c65-4204-916c-61726d20436c,rev?*%
%TF.SameCoordinates,Original*%
%TF.FileFunction,Copper,L1,Top*%
%TF.FilePolarity,Positive*%
%FSLAX46Y46*%
G04 Gerber Fmt 4.6, Leading zero omitted, Abs format (unit mm)*
G04 Created by KiCad (PCBNEW 9.0.8) date 2026-06-05 21:26:51*
%MOMM*%
%LPD*%
G01*
G04 APERTURE LIST*
G04 Aperture macros list*
%AMRoundRect*
0 Rectangle with rounded corners*
0 $1 Rounding radius*
0 $2 $3 $4 $5 $6 $7 $8 $9 X,Y pos of 4 corners*
0 Add a 4 corners polygon primitive as box body*
4,1,4,$2,$3,$4,$5,$6,$7,$8,$9,$2,$3,0*
0 Add four circle primitives for the rounded corners*
1,1,$1+$1,$2,$3*
1,1,$1+$1,$4,$5*
1,1,$1+$1,$6,$7*
1,1,$1+$1,$8,$9*
0 Add four rect primitives between the rounded corners*
20,1,$1+$1,$2,$3,$4,$5,0*
20,1,$1+$1,$4,$5,$6,$7,0*
20,1,$1+$1,$6,$7,$8,$9,0*
20,1,$1+$1,$8,$9,$2,$3,0*%
G04 Aperture macros list end*
%TA.AperFunction,SMDPad,CuDef*%
%ADD10RoundRect,0.152400X1.063600X0.609600X-1.063600X0.609600X-1.063600X-0.609600X1.063600X-0.609600X0*%
%TD*%
%TA.AperFunction,ComponentPad*%
%ADD11C,1.524000*%
%TD*%
%TA.AperFunction,SMDPad,CuDef*%
%ADD12RoundRect,0.152400X-1.063600X-0.609600X1.063600X-0.609600X1.063600X0.609600X-1.063600X0.609600X0*%
%TD*%
%TA.AperFunction,ComponentPad*%
%ADD13RoundRect,0.275000X0.975000X0.275000X-0.975000X0.275000X-0.975000X-0.275000X0.975000X-0.275000X0*%
%TD*%
%TA.AperFunction,ComponentPad*%
%ADD14R,1.700000X1.700000*%
%TD*%
%TA.AperFunction,ComponentPad*%
%ADD15C,1.700000*%
%TD*%
%TA.AperFunction,ComponentPad*%
%ADD16C,1.900000*%
%TD*%
%TA.AperFunction,ViaPad*%
%ADD17C,0.600000*%
%TD*%
%TA.AperFunction,Conductor*%
%ADD18C,0.200000*%
%TD*%
G04 APERTURE END LIST*
D10*
%TO.P,ESP32-C3,1,GPIO2_A0_D0*%
%TO.N,/B1*%
X103045000Y-33880000D03*
D11*
X103880000Y-33880000D03*
D10*
%TO.P,ESP32-C3,2,GPIO3_A1_D1*%
%TO.N,/B2*%
X103045000Y-36420000D03*
D11*
X103880000Y-36420000D03*
D10*
%TO.P,ESP32-C3,3,GPIO4_A2_D2*%
%TO.N,/CLK*%
X103045000Y-38960000D03*
D11*
X103880000Y-38960000D03*
D10*
%TO.P,ESP32-C3,4,GPIO5_A3_D3*%
%TO.N,/DT*%
X103045000Y-41500000D03*
D11*
X103880000Y-41500000D03*
D10*
%TO.P,ESP32-C3,5,GPIO6_D4_SDA*%
%TO.N,SDA*%
X103045000Y-44040000D03*
D11*
X103880000Y-44040000D03*
D10*
%TO.P,ESP32-C3,6,GPIO7_D5_SCL*%
%TO.N,SCL*%
X103045000Y-46580000D03*
D11*
X103880000Y-46580000D03*
D10*
%TO.P,ESP32-C3,7,GPIO21_D6_TX*%
%TO.N,unconnected-(U1-GPIO21_D6_TX-Pad7)*%
X103045000Y-49120000D03*
D11*
X103880000Y-49120000D03*
%TO.P,ESP32-C3,8,GPIO20_D7_RX*%
%TO.N,unconnected-(U1-GPIO20_D7_RX-Pad8)*%
X119120000Y-49120000D03*
D12*
X119955000Y-49120000D03*
D11*
%TO.P,ESP32-C3,9,GPIO8_D8_SCK*%
%TO.N,/SW*%
X119120000Y-46580000D03*
D12*
X119955000Y-46580000D03*
D11*
%TO.P,ESP32-C3,10,GPIO9_D9_MISO*%
%TO.N,/Buzzer*%
X119120000Y-44040000D03*
D12*
X119955000Y-44040000D03*
D11*
%TO.P,ESP32-C3,11,GPIO10_D10_MOSI*%
%TO.N,/B3*%
X119120000Y-41500000D03*
D12*
X119955000Y-41500000D03*
D11*
%TO.P,ESP32-C3,12,3V3*%
%TO.N,VCC*%
X119120000Y-38960000D03*
D12*
X119955000Y-38960000D03*
D11*
%TO.P,ESP32-C3,13,GND*%
%TO.N,GND*%
X119120000Y-36420000D03*
D12*
X119955000Y-36420000D03*
D11*
%TO.P,ESP32-C3,14,VBUS*%
%TO.N,unconnected-(U1-VBUS-Pad14)*%
X119120000Y-33880000D03*
D12*
X119955000Y-33880000D03*
D13*
%TO.P,ESP32-C3,21*%
%TO.N,Net-(BT1-+)*%
X107055000Y-41114000D03*
%TO.P,ESP32-C3,22*%
%TO.N,Net-(BT1--)*%
X107055000Y-39209000D03*
%TD*%
D14*
%TO.P,SSD1306,1,Pin_1*%
%TO.N,SDA*%
X95000000Y-43880000D03*
D15*
%TO.P,SSD1306,2,Pin_2*%
%TO.N,SCL*%
X95000000Y-46420000D03*
%TO.P,SSD1306,3,Pin_3*%
%TO.N,VCC*%
X95000000Y-48960000D03*
%TO.P,SSD1306,4,Pin_4*%
%TO.N,GND*%
X95000000Y-51500000D03*
%TD*%
D14*
%TO.P,Set/Snooze/Stop,1,Pin_1*%
%TO.N,/B1*%
X132500000Y-57500000D03*
D15*
%TO.P,Set/Snooze/Stop,2,Pin_2*%
%TO.N,/B2*%
X132500000Y-54960000D03*
%TO.P,Set/Snooze/Stop,3,Pin_3*%
%TO.N,/B3*%
X132500000Y-52420000D03*
%TO.P,Set/Snooze/Stop,4,Pin_4*%
%TO.N,GND*%
X132500000Y-49880000D03*
%TD*%
D14*
%TO.P,KY-040,1,Pin_1*%
%TO.N,/CLK*%
X124540000Y-57500000D03*
D15*
%TO.P,KY-040,2,Pin_2*%
%TO.N,/DT*%
X122000000Y-57500000D03*
%TO.P,KY-040,3,Pin_3*%
%TO.N,/SW*%
X119460000Y-57500000D03*
%TO.P,KY-040,4,Pin_4*%
%TO.N,VCC*%
X116920000Y-57500000D03*
%TO.P,KY-040,5,Pin_5*%
%TO.N,GND*%
X114380000Y-57500000D03*
%TD*%
D16*
%TO.P,9042 Buzzer,1,+*%
%TO.N,/Buzzer*%
X130000000Y-38000000D03*
%TO.P,9042 Buzzer,2,-*%
%TO.N,GND*%
X130000000Y-34000000D03*
%TD*%
D14*
%TO.P,DS3231,1,32KHZ*%
%TO.N,unconnected-(U2-32KHZ-Pad1)*%
X95000000Y-57500000D03*
D15*
%TO.P,DS3231,2,VCC*%
%TO.N,unconnected-(U2-~{RST}-Pad4)*%
X97540000Y-57500000D03*
%TO.P,DS3231,3,~{INT}/SQW*%
%TO.N,SCL*%
X100080000Y-57500000D03*
%TO.P,DS3231,4,~{RST}*%
%TO.N,SDA*%
X102620000Y-57500000D03*
%TO.P,DS3231,5,GND*%
%TO.N,VCC*%
X105160000Y-57500000D03*
%TO.P,DS3231,6,GND*%
%TO.N,GND*%
X107700000Y-57500000D03*
%TD*%
D14*
%TO.P,3.7V LiPo,1,+*%
%TO.N,Net-(BT1-+)*%
X94975000Y-35250000D03*
D15*
%TO.P,3.7V LiPo,2,-*%
%TO.N,Net-(BT1--)*%
X94975000Y-32710000D03*
%TD*%
D17*
%TO.N,Net-(BT1-+)*%
X105500000Y-36000000D03*
%TD*%
D18*
%TO.N,GND*%
X132500000Y-36500000D02*
X130000000Y-34000000D01*
X132500000Y-49880000D02*
X132500000Y-36500000D01*
X114380000Y-57500000D02*
X107700000Y-57500000D01*
X98000000Y-54500000D02*
X104700000Y-54500000D01*
X118380000Y-53500000D02*
X128880000Y-53500000D01*
X114380000Y-57500000D02*
X118380000Y-53500000D01*
X104700000Y-54500000D02*
X107700000Y-57500000D01*
X128880000Y-53500000D02*
X132500000Y-49880000D01*
X127580000Y-36420000D02*
X130000000Y-34000000D01*
X119120000Y-36420000D02*
X127580000Y-36420000D01*
X95000000Y-51500000D02*
X98000000Y-54500000D01*
%TO.N,/Buzzer*%
X119120000Y-44040000D02*
X123960000Y-44040000D01*
X123960000Y-44040000D02*
X130000000Y-38000000D01*
%TO.N,VCC*%
X93000000Y-50960000D02*
X95000000Y-48960000D01*
X93000000Y-54000000D02*
X93000000Y-50960000D01*
X114420000Y-60000000D02*
X107660000Y-60000000D01*
X99040000Y-53000000D02*
X95000000Y-48960000D01*
X94500000Y-55500000D02*
X93000000Y-54000000D01*
X116920000Y-57500000D02*
X114420000Y-60000000D01*
X107660000Y-60000000D02*
X105160000Y-57500000D01*
X105160000Y-57500000D02*
X103160000Y-55500000D01*
X119120000Y-38960000D02*
X105080000Y-53000000D01*
X105080000Y-53000000D02*
X99040000Y-53000000D01*
X103160000Y-55500000D02*
X94500000Y-55500000D01*
%TO.N,SDA*%
X102620000Y-57500000D02*
X98620000Y-61500000D01*
X98620000Y-61500000D02*
X92500000Y-61500000D01*
X92500000Y-61500000D02*
X89500000Y-58500000D01*
X103720000Y-43880000D02*
X103880000Y-44040000D01*
X95000000Y-43880000D02*
X103720000Y-43880000D01*
X89500000Y-58500000D02*
X89500000Y-49380000D01*
X89500000Y-49380000D02*
X95000000Y-43880000D01*
%TO.N,SCL*%
X93000000Y-60000000D02*
X97580000Y-60000000D01*
X95000000Y-46420000D02*
X103720000Y-46420000D01*
X91500000Y-58500000D02*
X93000000Y-60000000D01*
X95000000Y-46420000D02*
X91500000Y-49920000D01*
X91500000Y-49920000D02*
X91500000Y-58500000D01*
X103720000Y-46420000D02*
X103880000Y-46580000D01*
X97580000Y-60000000D02*
X100080000Y-57500000D01*
%TO.N,Net-(BT1--)*%
X97185000Y-30500000D02*
X94975000Y-32710000D01*
X107055000Y-39209000D02*
X107055000Y-33055000D01*
X104500000Y-30500000D02*
X97185000Y-30500000D01*
X107055000Y-33055000D02*
X104500000Y-30500000D01*
%TO.N,Net-(BT1-+)*%
X98225000Y-32000000D02*
X94975000Y-35250000D01*
X105500000Y-36000000D02*
X105500000Y-33500000D01*
X104000000Y-32000000D02*
X98225000Y-32000000D01*
X105500000Y-33500000D02*
X104000000Y-32000000D01*
X107055000Y-41055000D02*
X107000000Y-41000000D01*
X107055000Y-41114000D02*
X107055000Y-41055000D01*
%TD*%
M02*
