M48
; DRILL file {KiCad 9.0.8} date 2026-06-05T21:27:04-0700
; FORMAT={-:-/ absolute / metric / decimal}
; #@! TF.CreationDate,2026-06-05T21:27:04-07:00
; #@! TF.GenerationSoftware,Kicad,Pcbnew,9.0.8
; #@! TF.FileFunction,Plated,1,2,PTH
FMAT,2
METRIC
; #@! TA.AperFunction,Plated,PTH,ViaDrill
T1C0.300
; #@! TA.AperFunction,Plated,PTH,ComponentDrill
T2C0.800
; #@! TA.AperFunction,Plated,PTH,ComponentDrill
T3C0.889
; #@! TA.AperFunction,Plated,PTH,ComponentDrill
T4C1.000
%
G90
G05
T1
X105.5Y-36.0
T3
X103.88Y-33.88
X103.88Y-36.42
X103.88Y-38.96
X103.88Y-41.5
X103.88Y-44.04
X103.88Y-46.58
X103.88Y-49.12
X119.12Y-33.88
X119.12Y-36.42
X119.12Y-38.96
X119.12Y-41.5
X119.12Y-44.04
X119.12Y-46.58
X119.12Y-49.12
T4
X94.975Y-32.71
X94.975Y-35.25
X95.0Y-43.88
X95.0Y-46.42
X95.0Y-48.96
X95.0Y-51.5
X95.0Y-57.5
X97.54Y-57.5
X100.08Y-57.5
X102.62Y-57.5
X105.16Y-57.5
X107.7Y-57.5
X114.38Y-57.5
X116.92Y-57.5
X119.46Y-57.5
X122.0Y-57.5
X124.54Y-57.5
X130.0Y-34.0
X130.0Y-38.0
X132.5Y-49.88
X132.5Y-52.42
X132.5Y-54.96
X132.5Y-57.5
T2
G00X107.455Y-39.209
M15
G01X106.655Y-39.209
M16
G05
G00X107.455Y-41.114
M15
G01X106.655Y-41.114
M16
G05
M30
