%TF.GenerationSoftware,KiCad,Pcbnew,9.0.8*%
%TF.CreationDate,2026-06-05T21:26:51-07:00*%
%TF.ProjectId,Simple Alarm Clock,53696d70-6c65-4204-916c-61726d20436c,rev?*%
%TF.SameCoordinates,Original*%
%TF.FileFunction,Legend,Top*%
%TF.FilePolarity,Positive*%
%FSLAX46Y46*%
G04 Gerber Fmt 4.6, Leading zero omitted, Abs format (unit mm)*
G04 Created by KiCad (PCBNEW 9.0.8) date 2026-06-05 21:26:51*
%MOMM*%
%LPD*%
G01*
G04 APERTURE LIST*
%ADD10C,0.100000*%
%ADD11C,0.150000*%
%ADD12C,0.127000*%
%ADD13C,0.504000*%
%ADD14C,0.120000*%
G04 APERTURE END LIST*
D10*
X115500000Y-58830000D02*
X123500000Y-58830000D01*
X123500000Y-62500000D01*
X115500000Y-62500000D01*
X115500000Y-58830000D01*
D11*
X91836779Y-32488866D02*
X92598684Y-32488866D01*
X91836779Y-34988866D02*
X92598684Y-34988866D01*
X92217731Y-35369819D02*
X92217731Y-34607914D01*
X106860588Y-54417438D02*
X106765350Y-54369819D01*
X106765350Y-54369819D02*
X106622493Y-54369819D01*
X106622493Y-54369819D02*
X106479636Y-54417438D01*
X106479636Y-54417438D02*
X106384398Y-54512676D01*
X106384398Y-54512676D02*
X106336779Y-54607914D01*
X106336779Y-54607914D02*
X106289160Y-54798390D01*
X106289160Y-54798390D02*
X106289160Y-54941247D01*
X106289160Y-54941247D02*
X106336779Y-55131723D01*
X106336779Y-55131723D02*
X106384398Y-55226961D01*
X106384398Y-55226961D02*
X106479636Y-55322200D01*
X106479636Y-55322200D02*
X106622493Y-55369819D01*
X106622493Y-55369819D02*
X106717731Y-55369819D01*
X106717731Y-55369819D02*
X106860588Y-55322200D01*
X106860588Y-55322200D02*
X106908207Y-55274580D01*
X106908207Y-55274580D02*
X106908207Y-54941247D01*
X106908207Y-54941247D02*
X106717731Y-54941247D01*
X107336779Y-55369819D02*
X107336779Y-54369819D01*
X107336779Y-54369819D02*
X107908207Y-55369819D01*
X107908207Y-55369819D02*
X107908207Y-54369819D01*
X108384398Y-55369819D02*
X108384398Y-54369819D01*
X108384398Y-54369819D02*
X108622493Y-54369819D01*
X108622493Y-54369819D02*
X108765350Y-54417438D01*
X108765350Y-54417438D02*
X108860588Y-54512676D01*
X108860588Y-54512676D02*
X108908207Y-54607914D01*
X108908207Y-54607914D02*
X108955826Y-54798390D01*
X108955826Y-54798390D02*
X108955826Y-54941247D01*
X108955826Y-54941247D02*
X108908207Y-55131723D01*
X108908207Y-55131723D02*
X108860588Y-55226961D01*
X108860588Y-55226961D02*
X108765350Y-55322200D01*
X108765350Y-55322200D02*
X108622493Y-55369819D01*
X108622493Y-55369819D02*
X108384398Y-55369819D01*
X127836779Y-33988866D02*
X128598684Y-33988866D01*
X127836779Y-37988866D02*
X128598684Y-37988866D01*
X128217731Y-38369819D02*
X128217731Y-37607914D01*
X92322200Y-45210839D02*
X92369819Y-45067982D01*
X92369819Y-45067982D02*
X92369819Y-44829887D01*
X92369819Y-44829887D02*
X92322200Y-44734649D01*
X92322200Y-44734649D02*
X92274580Y-44687030D01*
X92274580Y-44687030D02*
X92179342Y-44639411D01*
X92179342Y-44639411D02*
X92084104Y-44639411D01*
X92084104Y-44639411D02*
X91988866Y-44687030D01*
X91988866Y-44687030D02*
X91941247Y-44734649D01*
X91941247Y-44734649D02*
X91893628Y-44829887D01*
X91893628Y-44829887D02*
X91846009Y-45020363D01*
X91846009Y-45020363D02*
X91798390Y-45115601D01*
X91798390Y-45115601D02*
X91750771Y-45163220D01*
X91750771Y-45163220D02*
X91655533Y-45210839D01*
X91655533Y-45210839D02*
X91560295Y-45210839D01*
X91560295Y-45210839D02*
X91465057Y-45163220D01*
X91465057Y-45163220D02*
X91417438Y-45115601D01*
X91417438Y-45115601D02*
X91369819Y-45020363D01*
X91369819Y-45020363D02*
X91369819Y-44782268D01*
X91369819Y-44782268D02*
X91417438Y-44639411D01*
X92369819Y-44210839D02*
X91369819Y-44210839D01*
X91369819Y-44210839D02*
X91369819Y-43972744D01*
X91369819Y-43972744D02*
X91417438Y-43829887D01*
X91417438Y-43829887D02*
X91512676Y-43734649D01*
X91512676Y-43734649D02*
X91607914Y-43687030D01*
X91607914Y-43687030D02*
X91798390Y-43639411D01*
X91798390Y-43639411D02*
X91941247Y-43639411D01*
X91941247Y-43639411D02*
X92131723Y-43687030D01*
X92131723Y-43687030D02*
X92226961Y-43734649D01*
X92226961Y-43734649D02*
X92322200Y-43829887D01*
X92322200Y-43829887D02*
X92369819Y-43972744D01*
X92369819Y-43972744D02*
X92369819Y-44210839D01*
X92084104Y-43258458D02*
X92084104Y-42782268D01*
X92369819Y-43353696D02*
X91369819Y-43020363D01*
X91369819Y-43020363D02*
X92369819Y-42687030D01*
X128917438Y-50639411D02*
X128869819Y-50734649D01*
X128869819Y-50734649D02*
X128869819Y-50877506D01*
X128869819Y-50877506D02*
X128917438Y-51020363D01*
X128917438Y-51020363D02*
X129012676Y-51115601D01*
X129012676Y-51115601D02*
X129107914Y-51163220D01*
X129107914Y-51163220D02*
X129298390Y-51210839D01*
X129298390Y-51210839D02*
X129441247Y-51210839D01*
X129441247Y-51210839D02*
X129631723Y-51163220D01*
X129631723Y-51163220D02*
X129726961Y-51115601D01*
X129726961Y-51115601D02*
X129822200Y-51020363D01*
X129822200Y-51020363D02*
X129869819Y-50877506D01*
X129869819Y-50877506D02*
X129869819Y-50782268D01*
X129869819Y-50782268D02*
X129822200Y-50639411D01*
X129822200Y-50639411D02*
X129774580Y-50591792D01*
X129774580Y-50591792D02*
X129441247Y-50591792D01*
X129441247Y-50591792D02*
X129441247Y-50782268D01*
X129869819Y-50163220D02*
X128869819Y-50163220D01*
X128869819Y-50163220D02*
X129869819Y-49591792D01*
X129869819Y-49591792D02*
X128869819Y-49591792D01*
X129869819Y-49115601D02*
X128869819Y-49115601D01*
X128869819Y-49115601D02*
X128869819Y-48877506D01*
X128869819Y-48877506D02*
X128917438Y-48734649D01*
X128917438Y-48734649D02*
X129012676Y-48639411D01*
X129012676Y-48639411D02*
X129107914Y-48591792D01*
X129107914Y-48591792D02*
X129298390Y-48544173D01*
X129298390Y-48544173D02*
X129441247Y-48544173D01*
X129441247Y-48544173D02*
X129631723Y-48591792D01*
X129631723Y-48591792D02*
X129726961Y-48639411D01*
X129726961Y-48639411D02*
X129822200Y-48734649D01*
X129822200Y-48734649D02*
X129869819Y-48877506D01*
X129869819Y-48877506D02*
X129869819Y-49115601D01*
X109261905Y-39931009D02*
X109595238Y-39931009D01*
X109738095Y-40454819D02*
X109261905Y-40454819D01*
X109261905Y-40454819D02*
X109261905Y-39454819D01*
X109261905Y-39454819D02*
X109738095Y-39454819D01*
X110119048Y-40407200D02*
X110261905Y-40454819D01*
X110261905Y-40454819D02*
X110500000Y-40454819D01*
X110500000Y-40454819D02*
X110595238Y-40407200D01*
X110595238Y-40407200D02*
X110642857Y-40359580D01*
X110642857Y-40359580D02*
X110690476Y-40264342D01*
X110690476Y-40264342D02*
X110690476Y-40169104D01*
X110690476Y-40169104D02*
X110642857Y-40073866D01*
X110642857Y-40073866D02*
X110595238Y-40026247D01*
X110595238Y-40026247D02*
X110500000Y-39978628D01*
X110500000Y-39978628D02*
X110309524Y-39931009D01*
X110309524Y-39931009D02*
X110214286Y-39883390D01*
X110214286Y-39883390D02*
X110166667Y-39835771D01*
X110166667Y-39835771D02*
X110119048Y-39740533D01*
X110119048Y-39740533D02*
X110119048Y-39645295D01*
X110119048Y-39645295D02*
X110166667Y-39550057D01*
X110166667Y-39550057D02*
X110214286Y-39502438D01*
X110214286Y-39502438D02*
X110309524Y-39454819D01*
X110309524Y-39454819D02*
X110547619Y-39454819D01*
X110547619Y-39454819D02*
X110690476Y-39502438D01*
X111119048Y-40454819D02*
X111119048Y-39454819D01*
X111119048Y-39454819D02*
X111500000Y-39454819D01*
X111500000Y-39454819D02*
X111595238Y-39502438D01*
X111595238Y-39502438D02*
X111642857Y-39550057D01*
X111642857Y-39550057D02*
X111690476Y-39645295D01*
X111690476Y-39645295D02*
X111690476Y-39788152D01*
X111690476Y-39788152D02*
X111642857Y-39883390D01*
X111642857Y-39883390D02*
X111595238Y-39931009D01*
X111595238Y-39931009D02*
X111500000Y-39978628D01*
X111500000Y-39978628D02*
X111119048Y-39978628D01*
X112023810Y-39454819D02*
X112642857Y-39454819D01*
X112642857Y-39454819D02*
X112309524Y-39835771D01*
X112309524Y-39835771D02*
X112452381Y-39835771D01*
X112452381Y-39835771D02*
X112547619Y-39883390D01*
X112547619Y-39883390D02*
X112595238Y-39931009D01*
X112595238Y-39931009D02*
X112642857Y-40026247D01*
X112642857Y-40026247D02*
X112642857Y-40264342D01*
X112642857Y-40264342D02*
X112595238Y-40359580D01*
X112595238Y-40359580D02*
X112547619Y-40407200D01*
X112547619Y-40407200D02*
X112452381Y-40454819D01*
X112452381Y-40454819D02*
X112166667Y-40454819D01*
X112166667Y-40454819D02*
X112071429Y-40407200D01*
X112071429Y-40407200D02*
X112023810Y-40359580D01*
X113023810Y-39550057D02*
X113071429Y-39502438D01*
X113071429Y-39502438D02*
X113166667Y-39454819D01*
X113166667Y-39454819D02*
X113404762Y-39454819D01*
X113404762Y-39454819D02*
X113500000Y-39502438D01*
X113500000Y-39502438D02*
X113547619Y-39550057D01*
X113547619Y-39550057D02*
X113595238Y-39645295D01*
X113595238Y-39645295D02*
X113595238Y-39740533D01*
X113595238Y-39740533D02*
X113547619Y-39883390D01*
X113547619Y-39883390D02*
X112976191Y-40454819D01*
X112976191Y-40454819D02*
X113595238Y-40454819D01*
X114023810Y-40073866D02*
X114785715Y-40073866D01*
X115833333Y-40359580D02*
X115785714Y-40407200D01*
X115785714Y-40407200D02*
X115642857Y-40454819D01*
X115642857Y-40454819D02*
X115547619Y-40454819D01*
X115547619Y-40454819D02*
X115404762Y-40407200D01*
X115404762Y-40407200D02*
X115309524Y-40311961D01*
X115309524Y-40311961D02*
X115261905Y-40216723D01*
X115261905Y-40216723D02*
X115214286Y-40026247D01*
X115214286Y-40026247D02*
X115214286Y-39883390D01*
X115214286Y-39883390D02*
X115261905Y-39692914D01*
X115261905Y-39692914D02*
X115309524Y-39597676D01*
X115309524Y-39597676D02*
X115404762Y-39502438D01*
X115404762Y-39502438D02*
X115547619Y-39454819D01*
X115547619Y-39454819D02*
X115642857Y-39454819D01*
X115642857Y-39454819D02*
X115785714Y-39502438D01*
X115785714Y-39502438D02*
X115833333Y-39550057D01*
X116166667Y-39454819D02*
X116785714Y-39454819D01*
X116785714Y-39454819D02*
X116452381Y-39835771D01*
X116452381Y-39835771D02*
X116595238Y-39835771D01*
X116595238Y-39835771D02*
X116690476Y-39883390D01*
X116690476Y-39883390D02*
X116738095Y-39931009D01*
X116738095Y-39931009D02*
X116785714Y-40026247D01*
X116785714Y-40026247D02*
X116785714Y-40264342D01*
X116785714Y-40264342D02*
X116738095Y-40359580D01*
X116738095Y-40359580D02*
X116690476Y-40407200D01*
X116690476Y-40407200D02*
X116595238Y-40454819D01*
X116595238Y-40454819D02*
X116309524Y-40454819D01*
X116309524Y-40454819D02*
X116214286Y-40407200D01*
X116214286Y-40407200D02*
X116166667Y-40359580D01*
X91833333Y-41517200D02*
X91976190Y-41564819D01*
X91976190Y-41564819D02*
X92214285Y-41564819D01*
X92214285Y-41564819D02*
X92309523Y-41517200D01*
X92309523Y-41517200D02*
X92357142Y-41469580D01*
X92357142Y-41469580D02*
X92404761Y-41374342D01*
X92404761Y-41374342D02*
X92404761Y-41279104D01*
X92404761Y-41279104D02*
X92357142Y-41183866D01*
X92357142Y-41183866D02*
X92309523Y-41136247D01*
X92309523Y-41136247D02*
X92214285Y-41088628D01*
X92214285Y-41088628D02*
X92023809Y-41041009D01*
X92023809Y-41041009D02*
X91928571Y-40993390D01*
X91928571Y-40993390D02*
X91880952Y-40945771D01*
X91880952Y-40945771D02*
X91833333Y-40850533D01*
X91833333Y-40850533D02*
X91833333Y-40755295D01*
X91833333Y-40755295D02*
X91880952Y-40660057D01*
X91880952Y-40660057D02*
X91928571Y-40612438D01*
X91928571Y-40612438D02*
X92023809Y-40564819D01*
X92023809Y-40564819D02*
X92261904Y-40564819D01*
X92261904Y-40564819D02*
X92404761Y-40612438D01*
X92785714Y-41517200D02*
X92928571Y-41564819D01*
X92928571Y-41564819D02*
X93166666Y-41564819D01*
X93166666Y-41564819D02*
X93261904Y-41517200D01*
X93261904Y-41517200D02*
X93309523Y-41469580D01*
X93309523Y-41469580D02*
X93357142Y-41374342D01*
X93357142Y-41374342D02*
X93357142Y-41279104D01*
X93357142Y-41279104D02*
X93309523Y-41183866D01*
X93309523Y-41183866D02*
X93261904Y-41136247D01*
X93261904Y-41136247D02*
X93166666Y-41088628D01*
X93166666Y-41088628D02*
X92976190Y-41041009D01*
X92976190Y-41041009D02*
X92880952Y-40993390D01*
X92880952Y-40993390D02*
X92833333Y-40945771D01*
X92833333Y-40945771D02*
X92785714Y-40850533D01*
X92785714Y-40850533D02*
X92785714Y-40755295D01*
X92785714Y-40755295D02*
X92833333Y-40660057D01*
X92833333Y-40660057D02*
X92880952Y-40612438D01*
X92880952Y-40612438D02*
X92976190Y-40564819D01*
X92976190Y-40564819D02*
X93214285Y-40564819D01*
X93214285Y-40564819D02*
X93357142Y-40612438D01*
X93785714Y-41564819D02*
X93785714Y-40564819D01*
X93785714Y-40564819D02*
X94023809Y-40564819D01*
X94023809Y-40564819D02*
X94166666Y-40612438D01*
X94166666Y-40612438D02*
X94261904Y-40707676D01*
X94261904Y-40707676D02*
X94309523Y-40802914D01*
X94309523Y-40802914D02*
X94357142Y-40993390D01*
X94357142Y-40993390D02*
X94357142Y-41136247D01*
X94357142Y-41136247D02*
X94309523Y-41326723D01*
X94309523Y-41326723D02*
X94261904Y-41421961D01*
X94261904Y-41421961D02*
X94166666Y-41517200D01*
X94166666Y-41517200D02*
X94023809Y-41564819D01*
X94023809Y-41564819D02*
X93785714Y-41564819D01*
X95309523Y-41564819D02*
X94738095Y-41564819D01*
X95023809Y-41564819D02*
X95023809Y-40564819D01*
X95023809Y-40564819D02*
X94928571Y-40707676D01*
X94928571Y-40707676D02*
X94833333Y-40802914D01*
X94833333Y-40802914D02*
X94738095Y-40850533D01*
X95642857Y-40564819D02*
X96261904Y-40564819D01*
X96261904Y-40564819D02*
X95928571Y-40945771D01*
X95928571Y-40945771D02*
X96071428Y-40945771D01*
X96071428Y-40945771D02*
X96166666Y-40993390D01*
X96166666Y-40993390D02*
X96214285Y-41041009D01*
X96214285Y-41041009D02*
X96261904Y-41136247D01*
X96261904Y-41136247D02*
X96261904Y-41374342D01*
X96261904Y-41374342D02*
X96214285Y-41469580D01*
X96214285Y-41469580D02*
X96166666Y-41517200D01*
X96166666Y-41517200D02*
X96071428Y-41564819D01*
X96071428Y-41564819D02*
X95785714Y-41564819D01*
X95785714Y-41564819D02*
X95690476Y-41517200D01*
X95690476Y-41517200D02*
X95642857Y-41469580D01*
X96880952Y-40564819D02*
X96976190Y-40564819D01*
X96976190Y-40564819D02*
X97071428Y-40612438D01*
X97071428Y-40612438D02*
X97119047Y-40660057D01*
X97119047Y-40660057D02*
X97166666Y-40755295D01*
X97166666Y-40755295D02*
X97214285Y-40945771D01*
X97214285Y-40945771D02*
X97214285Y-41183866D01*
X97214285Y-41183866D02*
X97166666Y-41374342D01*
X97166666Y-41374342D02*
X97119047Y-41469580D01*
X97119047Y-41469580D02*
X97071428Y-41517200D01*
X97071428Y-41517200D02*
X96976190Y-41564819D01*
X96976190Y-41564819D02*
X96880952Y-41564819D01*
X96880952Y-41564819D02*
X96785714Y-41517200D01*
X96785714Y-41517200D02*
X96738095Y-41469580D01*
X96738095Y-41469580D02*
X96690476Y-41374342D01*
X96690476Y-41374342D02*
X96642857Y-41183866D01*
X96642857Y-41183866D02*
X96642857Y-40945771D01*
X96642857Y-40945771D02*
X96690476Y-40755295D01*
X96690476Y-40755295D02*
X96738095Y-40660057D01*
X96738095Y-40660057D02*
X96785714Y-40612438D01*
X96785714Y-40612438D02*
X96880952Y-40564819D01*
X98071428Y-40564819D02*
X97880952Y-40564819D01*
X97880952Y-40564819D02*
X97785714Y-40612438D01*
X97785714Y-40612438D02*
X97738095Y-40660057D01*
X97738095Y-40660057D02*
X97642857Y-40802914D01*
X97642857Y-40802914D02*
X97595238Y-40993390D01*
X97595238Y-40993390D02*
X97595238Y-41374342D01*
X97595238Y-41374342D02*
X97642857Y-41469580D01*
X97642857Y-41469580D02*
X97690476Y-41517200D01*
X97690476Y-41517200D02*
X97785714Y-41564819D01*
X97785714Y-41564819D02*
X97976190Y-41564819D01*
X97976190Y-41564819D02*
X98071428Y-41517200D01*
X98071428Y-41517200D02*
X98119047Y-41469580D01*
X98119047Y-41469580D02*
X98166666Y-41374342D01*
X98166666Y-41374342D02*
X98166666Y-41136247D01*
X98166666Y-41136247D02*
X98119047Y-41041009D01*
X98119047Y-41041009D02*
X98071428Y-40993390D01*
X98071428Y-40993390D02*
X97976190Y-40945771D01*
X97976190Y-40945771D02*
X97785714Y-40945771D01*
X97785714Y-40945771D02*
X97690476Y-40993390D01*
X97690476Y-40993390D02*
X97642857Y-41041009D01*
X97642857Y-41041009D02*
X97595238Y-41136247D01*
X136407200Y-59880952D02*
X136454819Y-59738095D01*
X136454819Y-59738095D02*
X136454819Y-59500000D01*
X136454819Y-59500000D02*
X136407200Y-59404762D01*
X136407200Y-59404762D02*
X136359580Y-59357143D01*
X136359580Y-59357143D02*
X136264342Y-59309524D01*
X136264342Y-59309524D02*
X136169104Y-59309524D01*
X136169104Y-59309524D02*
X136073866Y-59357143D01*
X136073866Y-59357143D02*
X136026247Y-59404762D01*
X136026247Y-59404762D02*
X135978628Y-59500000D01*
X135978628Y-59500000D02*
X135931009Y-59690476D01*
X135931009Y-59690476D02*
X135883390Y-59785714D01*
X135883390Y-59785714D02*
X135835771Y-59833333D01*
X135835771Y-59833333D02*
X135740533Y-59880952D01*
X135740533Y-59880952D02*
X135645295Y-59880952D01*
X135645295Y-59880952D02*
X135550057Y-59833333D01*
X135550057Y-59833333D02*
X135502438Y-59785714D01*
X135502438Y-59785714D02*
X135454819Y-59690476D01*
X135454819Y-59690476D02*
X135454819Y-59452381D01*
X135454819Y-59452381D02*
X135502438Y-59309524D01*
X136407200Y-58500000D02*
X136454819Y-58595238D01*
X136454819Y-58595238D02*
X136454819Y-58785714D01*
X136454819Y-58785714D02*
X136407200Y-58880952D01*
X136407200Y-58880952D02*
X136311961Y-58928571D01*
X136311961Y-58928571D02*
X135931009Y-58928571D01*
X135931009Y-58928571D02*
X135835771Y-58880952D01*
X135835771Y-58880952D02*
X135788152Y-58785714D01*
X135788152Y-58785714D02*
X135788152Y-58595238D01*
X135788152Y-58595238D02*
X135835771Y-58500000D01*
X135835771Y-58500000D02*
X135931009Y-58452381D01*
X135931009Y-58452381D02*
X136026247Y-58452381D01*
X136026247Y-58452381D02*
X136121485Y-58928571D01*
X135788152Y-58166666D02*
X135788152Y-57785714D01*
X135454819Y-58023809D02*
X136311961Y-58023809D01*
X136311961Y-58023809D02*
X136407200Y-57976190D01*
X136407200Y-57976190D02*
X136454819Y-57880952D01*
X136454819Y-57880952D02*
X136454819Y-57785714D01*
X135407200Y-56738095D02*
X136692914Y-57595237D01*
X136407200Y-56452380D02*
X136454819Y-56309523D01*
X136454819Y-56309523D02*
X136454819Y-56071428D01*
X136454819Y-56071428D02*
X136407200Y-55976190D01*
X136407200Y-55976190D02*
X136359580Y-55928571D01*
X136359580Y-55928571D02*
X136264342Y-55880952D01*
X136264342Y-55880952D02*
X136169104Y-55880952D01*
X136169104Y-55880952D02*
X136073866Y-55928571D01*
X136073866Y-55928571D02*
X136026247Y-55976190D01*
X136026247Y-55976190D02*
X135978628Y-56071428D01*
X135978628Y-56071428D02*
X135931009Y-56261904D01*
X135931009Y-56261904D02*
X135883390Y-56357142D01*
X135883390Y-56357142D02*
X135835771Y-56404761D01*
X135835771Y-56404761D02*
X135740533Y-56452380D01*
X135740533Y-56452380D02*
X135645295Y-56452380D01*
X135645295Y-56452380D02*
X135550057Y-56404761D01*
X135550057Y-56404761D02*
X135502438Y-56357142D01*
X135502438Y-56357142D02*
X135454819Y-56261904D01*
X135454819Y-56261904D02*
X135454819Y-56023809D01*
X135454819Y-56023809D02*
X135502438Y-55880952D01*
X135788152Y-55452380D02*
X136454819Y-55452380D01*
X135883390Y-55452380D02*
X135835771Y-55404761D01*
X135835771Y-55404761D02*
X135788152Y-55309523D01*
X135788152Y-55309523D02*
X135788152Y-55166666D01*
X135788152Y-55166666D02*
X135835771Y-55071428D01*
X135835771Y-55071428D02*
X135931009Y-55023809D01*
X135931009Y-55023809D02*
X136454819Y-55023809D01*
X136454819Y-54404761D02*
X136407200Y-54499999D01*
X136407200Y-54499999D02*
X136359580Y-54547618D01*
X136359580Y-54547618D02*
X136264342Y-54595237D01*
X136264342Y-54595237D02*
X135978628Y-54595237D01*
X135978628Y-54595237D02*
X135883390Y-54547618D01*
X135883390Y-54547618D02*
X135835771Y-54499999D01*
X135835771Y-54499999D02*
X135788152Y-54404761D01*
X135788152Y-54404761D02*
X135788152Y-54261904D01*
X135788152Y-54261904D02*
X135835771Y-54166666D01*
X135835771Y-54166666D02*
X135883390Y-54119047D01*
X135883390Y-54119047D02*
X135978628Y-54071428D01*
X135978628Y-54071428D02*
X136264342Y-54071428D01*
X136264342Y-54071428D02*
X136359580Y-54119047D01*
X136359580Y-54119047D02*
X136407200Y-54166666D01*
X136407200Y-54166666D02*
X136454819Y-54261904D01*
X136454819Y-54261904D02*
X136454819Y-54404761D01*
X136454819Y-53499999D02*
X136407200Y-53595237D01*
X136407200Y-53595237D02*
X136359580Y-53642856D01*
X136359580Y-53642856D02*
X136264342Y-53690475D01*
X136264342Y-53690475D02*
X135978628Y-53690475D01*
X135978628Y-53690475D02*
X135883390Y-53642856D01*
X135883390Y-53642856D02*
X135835771Y-53595237D01*
X135835771Y-53595237D02*
X135788152Y-53499999D01*
X135788152Y-53499999D02*
X135788152Y-53357142D01*
X135788152Y-53357142D02*
X135835771Y-53261904D01*
X135835771Y-53261904D02*
X135883390Y-53214285D01*
X135883390Y-53214285D02*
X135978628Y-53166666D01*
X135978628Y-53166666D02*
X136264342Y-53166666D01*
X136264342Y-53166666D02*
X136359580Y-53214285D01*
X136359580Y-53214285D02*
X136407200Y-53261904D01*
X136407200Y-53261904D02*
X136454819Y-53357142D01*
X136454819Y-53357142D02*
X136454819Y-53499999D01*
X135788152Y-52833332D02*
X135788152Y-52309523D01*
X135788152Y-52309523D02*
X136454819Y-52833332D01*
X136454819Y-52833332D02*
X136454819Y-52309523D01*
X136407200Y-51547618D02*
X136454819Y-51642856D01*
X136454819Y-51642856D02*
X136454819Y-51833332D01*
X136454819Y-51833332D02*
X136407200Y-51928570D01*
X136407200Y-51928570D02*
X136311961Y-51976189D01*
X136311961Y-51976189D02*
X135931009Y-51976189D01*
X135931009Y-51976189D02*
X135835771Y-51928570D01*
X135835771Y-51928570D02*
X135788152Y-51833332D01*
X135788152Y-51833332D02*
X135788152Y-51642856D01*
X135788152Y-51642856D02*
X135835771Y-51547618D01*
X135835771Y-51547618D02*
X135931009Y-51499999D01*
X135931009Y-51499999D02*
X136026247Y-51499999D01*
X136026247Y-51499999D02*
X136121485Y-51976189D01*
X135407200Y-50357142D02*
X136692914Y-51214284D01*
X136407200Y-50071427D02*
X136454819Y-49928570D01*
X136454819Y-49928570D02*
X136454819Y-49690475D01*
X136454819Y-49690475D02*
X136407200Y-49595237D01*
X136407200Y-49595237D02*
X136359580Y-49547618D01*
X136359580Y-49547618D02*
X136264342Y-49499999D01*
X136264342Y-49499999D02*
X136169104Y-49499999D01*
X136169104Y-49499999D02*
X136073866Y-49547618D01*
X136073866Y-49547618D02*
X136026247Y-49595237D01*
X136026247Y-49595237D02*
X135978628Y-49690475D01*
X135978628Y-49690475D02*
X135931009Y-49880951D01*
X135931009Y-49880951D02*
X135883390Y-49976189D01*
X135883390Y-49976189D02*
X135835771Y-50023808D01*
X135835771Y-50023808D02*
X135740533Y-50071427D01*
X135740533Y-50071427D02*
X135645295Y-50071427D01*
X135645295Y-50071427D02*
X135550057Y-50023808D01*
X135550057Y-50023808D02*
X135502438Y-49976189D01*
X135502438Y-49976189D02*
X135454819Y-49880951D01*
X135454819Y-49880951D02*
X135454819Y-49642856D01*
X135454819Y-49642856D02*
X135502438Y-49499999D01*
X135788152Y-49214284D02*
X135788152Y-48833332D01*
X135454819Y-49071427D02*
X136311961Y-49071427D01*
X136311961Y-49071427D02*
X136407200Y-49023808D01*
X136407200Y-49023808D02*
X136454819Y-48928570D01*
X136454819Y-48928570D02*
X136454819Y-48833332D01*
X136454819Y-48357141D02*
X136407200Y-48452379D01*
X136407200Y-48452379D02*
X136359580Y-48499998D01*
X136359580Y-48499998D02*
X136264342Y-48547617D01*
X136264342Y-48547617D02*
X135978628Y-48547617D01*
X135978628Y-48547617D02*
X135883390Y-48499998D01*
X135883390Y-48499998D02*
X135835771Y-48452379D01*
X135835771Y-48452379D02*
X135788152Y-48357141D01*
X135788152Y-48357141D02*
X135788152Y-48214284D01*
X135788152Y-48214284D02*
X135835771Y-48119046D01*
X135835771Y-48119046D02*
X135883390Y-48071427D01*
X135883390Y-48071427D02*
X135978628Y-48023808D01*
X135978628Y-48023808D02*
X136264342Y-48023808D01*
X136264342Y-48023808D02*
X136359580Y-48071427D01*
X136359580Y-48071427D02*
X136407200Y-48119046D01*
X136407200Y-48119046D02*
X136454819Y-48214284D01*
X136454819Y-48214284D02*
X136454819Y-48357141D01*
X135788152Y-47595236D02*
X136788152Y-47595236D01*
X135835771Y-47595236D02*
X135788152Y-47499998D01*
X135788152Y-47499998D02*
X135788152Y-47309522D01*
X135788152Y-47309522D02*
X135835771Y-47214284D01*
X135835771Y-47214284D02*
X135883390Y-47166665D01*
X135883390Y-47166665D02*
X135978628Y-47119046D01*
X135978628Y-47119046D02*
X136264342Y-47119046D01*
X136264342Y-47119046D02*
X136359580Y-47166665D01*
X136359580Y-47166665D02*
X136407200Y-47214284D01*
X136407200Y-47214284D02*
X136454819Y-47309522D01*
X136454819Y-47309522D02*
X136454819Y-47499998D01*
X136454819Y-47499998D02*
X136407200Y-47595236D01*
X116761905Y-60954819D02*
X116761905Y-59954819D01*
X117333333Y-60954819D02*
X116904762Y-60383390D01*
X117333333Y-59954819D02*
X116761905Y-60526247D01*
X117952381Y-60478628D02*
X117952381Y-60954819D01*
X117619048Y-59954819D02*
X117952381Y-60478628D01*
X117952381Y-60478628D02*
X118285714Y-59954819D01*
X118619048Y-60573866D02*
X119380953Y-60573866D01*
X120047619Y-59954819D02*
X120142857Y-59954819D01*
X120142857Y-59954819D02*
X120238095Y-60002438D01*
X120238095Y-60002438D02*
X120285714Y-60050057D01*
X120285714Y-60050057D02*
X120333333Y-60145295D01*
X120333333Y-60145295D02*
X120380952Y-60335771D01*
X120380952Y-60335771D02*
X120380952Y-60573866D01*
X120380952Y-60573866D02*
X120333333Y-60764342D01*
X120333333Y-60764342D02*
X120285714Y-60859580D01*
X120285714Y-60859580D02*
X120238095Y-60907200D01*
X120238095Y-60907200D02*
X120142857Y-60954819D01*
X120142857Y-60954819D02*
X120047619Y-60954819D01*
X120047619Y-60954819D02*
X119952381Y-60907200D01*
X119952381Y-60907200D02*
X119904762Y-60859580D01*
X119904762Y-60859580D02*
X119857143Y-60764342D01*
X119857143Y-60764342D02*
X119809524Y-60573866D01*
X119809524Y-60573866D02*
X119809524Y-60335771D01*
X119809524Y-60335771D02*
X119857143Y-60145295D01*
X119857143Y-60145295D02*
X119904762Y-60050057D01*
X119904762Y-60050057D02*
X119952381Y-60002438D01*
X119952381Y-60002438D02*
X120047619Y-59954819D01*
X121238095Y-60288152D02*
X121238095Y-60954819D01*
X121000000Y-59907200D02*
X120761905Y-60621485D01*
X120761905Y-60621485D02*
X121380952Y-60621485D01*
X121952381Y-59954819D02*
X122047619Y-59954819D01*
X122047619Y-59954819D02*
X122142857Y-60002438D01*
X122142857Y-60002438D02*
X122190476Y-60050057D01*
X122190476Y-60050057D02*
X122238095Y-60145295D01*
X122238095Y-60145295D02*
X122285714Y-60335771D01*
X122285714Y-60335771D02*
X122285714Y-60573866D01*
X122285714Y-60573866D02*
X122238095Y-60764342D01*
X122238095Y-60764342D02*
X122190476Y-60859580D01*
X122190476Y-60859580D02*
X122142857Y-60907200D01*
X122142857Y-60907200D02*
X122047619Y-60954819D01*
X122047619Y-60954819D02*
X121952381Y-60954819D01*
X121952381Y-60954819D02*
X121857143Y-60907200D01*
X121857143Y-60907200D02*
X121809524Y-60859580D01*
X121809524Y-60859580D02*
X121761905Y-60764342D01*
X121761905Y-60764342D02*
X121714286Y-60573866D01*
X121714286Y-60573866D02*
X121714286Y-60335771D01*
X121714286Y-60335771D02*
X121761905Y-60145295D01*
X121761905Y-60145295D02*
X121809524Y-60050057D01*
X121809524Y-60050057D02*
X121857143Y-60002438D01*
X121857143Y-60002438D02*
X121952381Y-59954819D01*
X136454819Y-40500000D02*
X136454819Y-40309524D01*
X136454819Y-40309524D02*
X136407200Y-40214286D01*
X136407200Y-40214286D02*
X136359580Y-40166667D01*
X136359580Y-40166667D02*
X136216723Y-40071429D01*
X136216723Y-40071429D02*
X136026247Y-40023810D01*
X136026247Y-40023810D02*
X135645295Y-40023810D01*
X135645295Y-40023810D02*
X135550057Y-40071429D01*
X135550057Y-40071429D02*
X135502438Y-40119048D01*
X135502438Y-40119048D02*
X135454819Y-40214286D01*
X135454819Y-40214286D02*
X135454819Y-40404762D01*
X135454819Y-40404762D02*
X135502438Y-40500000D01*
X135502438Y-40500000D02*
X135550057Y-40547619D01*
X135550057Y-40547619D02*
X135645295Y-40595238D01*
X135645295Y-40595238D02*
X135883390Y-40595238D01*
X135883390Y-40595238D02*
X135978628Y-40547619D01*
X135978628Y-40547619D02*
X136026247Y-40500000D01*
X136026247Y-40500000D02*
X136073866Y-40404762D01*
X136073866Y-40404762D02*
X136073866Y-40214286D01*
X136073866Y-40214286D02*
X136026247Y-40119048D01*
X136026247Y-40119048D02*
X135978628Y-40071429D01*
X135978628Y-40071429D02*
X135883390Y-40023810D01*
X135454819Y-39404762D02*
X135454819Y-39309524D01*
X135454819Y-39309524D02*
X135502438Y-39214286D01*
X135502438Y-39214286D02*
X135550057Y-39166667D01*
X135550057Y-39166667D02*
X135645295Y-39119048D01*
X135645295Y-39119048D02*
X135835771Y-39071429D01*
X135835771Y-39071429D02*
X136073866Y-39071429D01*
X136073866Y-39071429D02*
X136264342Y-39119048D01*
X136264342Y-39119048D02*
X136359580Y-39166667D01*
X136359580Y-39166667D02*
X136407200Y-39214286D01*
X136407200Y-39214286D02*
X136454819Y-39309524D01*
X136454819Y-39309524D02*
X136454819Y-39404762D01*
X136454819Y-39404762D02*
X136407200Y-39500000D01*
X136407200Y-39500000D02*
X136359580Y-39547619D01*
X136359580Y-39547619D02*
X136264342Y-39595238D01*
X136264342Y-39595238D02*
X136073866Y-39642857D01*
X136073866Y-39642857D02*
X135835771Y-39642857D01*
X135835771Y-39642857D02*
X135645295Y-39595238D01*
X135645295Y-39595238D02*
X135550057Y-39547619D01*
X135550057Y-39547619D02*
X135502438Y-39500000D01*
X135502438Y-39500000D02*
X135454819Y-39404762D01*
X135788152Y-38214286D02*
X136454819Y-38214286D01*
X135407200Y-38452381D02*
X136121485Y-38690476D01*
X136121485Y-38690476D02*
X136121485Y-38071429D01*
X135550057Y-37738095D02*
X135502438Y-37690476D01*
X135502438Y-37690476D02*
X135454819Y-37595238D01*
X135454819Y-37595238D02*
X135454819Y-37357143D01*
X135454819Y-37357143D02*
X135502438Y-37261905D01*
X135502438Y-37261905D02*
X135550057Y-37214286D01*
X135550057Y-37214286D02*
X135645295Y-37166667D01*
X135645295Y-37166667D02*
X135740533Y-37166667D01*
X135740533Y-37166667D02*
X135883390Y-37214286D01*
X135883390Y-37214286D02*
X136454819Y-37785714D01*
X136454819Y-37785714D02*
X136454819Y-37166667D01*
X135931009Y-35642857D02*
X135978628Y-35500000D01*
X135978628Y-35500000D02*
X136026247Y-35452381D01*
X136026247Y-35452381D02*
X136121485Y-35404762D01*
X136121485Y-35404762D02*
X136264342Y-35404762D01*
X136264342Y-35404762D02*
X136359580Y-35452381D01*
X136359580Y-35452381D02*
X136407200Y-35500000D01*
X136407200Y-35500000D02*
X136454819Y-35595238D01*
X136454819Y-35595238D02*
X136454819Y-35976190D01*
X136454819Y-35976190D02*
X135454819Y-35976190D01*
X135454819Y-35976190D02*
X135454819Y-35642857D01*
X135454819Y-35642857D02*
X135502438Y-35547619D01*
X135502438Y-35547619D02*
X135550057Y-35500000D01*
X135550057Y-35500000D02*
X135645295Y-35452381D01*
X135645295Y-35452381D02*
X135740533Y-35452381D01*
X135740533Y-35452381D02*
X135835771Y-35500000D01*
X135835771Y-35500000D02*
X135883390Y-35547619D01*
X135883390Y-35547619D02*
X135931009Y-35642857D01*
X135931009Y-35642857D02*
X135931009Y-35976190D01*
X135788152Y-34547619D02*
X136454819Y-34547619D01*
X135788152Y-34976190D02*
X136311961Y-34976190D01*
X136311961Y-34976190D02*
X136407200Y-34928571D01*
X136407200Y-34928571D02*
X136454819Y-34833333D01*
X136454819Y-34833333D02*
X136454819Y-34690476D01*
X136454819Y-34690476D02*
X136407200Y-34595238D01*
X136407200Y-34595238D02*
X136359580Y-34547619D01*
X135788152Y-34166666D02*
X135788152Y-33642857D01*
X135788152Y-33642857D02*
X136454819Y-34166666D01*
X136454819Y-34166666D02*
X136454819Y-33642857D01*
X135788152Y-33357142D02*
X135788152Y-32833333D01*
X135788152Y-32833333D02*
X136454819Y-33357142D01*
X136454819Y-33357142D02*
X136454819Y-32833333D01*
X136407200Y-32071428D02*
X136454819Y-32166666D01*
X136454819Y-32166666D02*
X136454819Y-32357142D01*
X136454819Y-32357142D02*
X136407200Y-32452380D01*
X136407200Y-32452380D02*
X136311961Y-32499999D01*
X136311961Y-32499999D02*
X135931009Y-32499999D01*
X135931009Y-32499999D02*
X135835771Y-32452380D01*
X135835771Y-32452380D02*
X135788152Y-32357142D01*
X135788152Y-32357142D02*
X135788152Y-32166666D01*
X135788152Y-32166666D02*
X135835771Y-32071428D01*
X135835771Y-32071428D02*
X135931009Y-32023809D01*
X135931009Y-32023809D02*
X136026247Y-32023809D01*
X136026247Y-32023809D02*
X136121485Y-32499999D01*
X136454819Y-31595237D02*
X135788152Y-31595237D01*
X135978628Y-31595237D02*
X135883390Y-31547618D01*
X135883390Y-31547618D02*
X135835771Y-31499999D01*
X135835771Y-31499999D02*
X135788152Y-31404761D01*
X135788152Y-31404761D02*
X135788152Y-31309523D01*
X101357143Y-60954819D02*
X101357143Y-59954819D01*
X101357143Y-59954819D02*
X101595238Y-59954819D01*
X101595238Y-59954819D02*
X101738095Y-60002438D01*
X101738095Y-60002438D02*
X101833333Y-60097676D01*
X101833333Y-60097676D02*
X101880952Y-60192914D01*
X101880952Y-60192914D02*
X101928571Y-60383390D01*
X101928571Y-60383390D02*
X101928571Y-60526247D01*
X101928571Y-60526247D02*
X101880952Y-60716723D01*
X101880952Y-60716723D02*
X101833333Y-60811961D01*
X101833333Y-60811961D02*
X101738095Y-60907200D01*
X101738095Y-60907200D02*
X101595238Y-60954819D01*
X101595238Y-60954819D02*
X101357143Y-60954819D01*
X102309524Y-60907200D02*
X102452381Y-60954819D01*
X102452381Y-60954819D02*
X102690476Y-60954819D01*
X102690476Y-60954819D02*
X102785714Y-60907200D01*
X102785714Y-60907200D02*
X102833333Y-60859580D01*
X102833333Y-60859580D02*
X102880952Y-60764342D01*
X102880952Y-60764342D02*
X102880952Y-60669104D01*
X102880952Y-60669104D02*
X102833333Y-60573866D01*
X102833333Y-60573866D02*
X102785714Y-60526247D01*
X102785714Y-60526247D02*
X102690476Y-60478628D01*
X102690476Y-60478628D02*
X102500000Y-60431009D01*
X102500000Y-60431009D02*
X102404762Y-60383390D01*
X102404762Y-60383390D02*
X102357143Y-60335771D01*
X102357143Y-60335771D02*
X102309524Y-60240533D01*
X102309524Y-60240533D02*
X102309524Y-60145295D01*
X102309524Y-60145295D02*
X102357143Y-60050057D01*
X102357143Y-60050057D02*
X102404762Y-60002438D01*
X102404762Y-60002438D02*
X102500000Y-59954819D01*
X102500000Y-59954819D02*
X102738095Y-59954819D01*
X102738095Y-59954819D02*
X102880952Y-60002438D01*
X103214286Y-59954819D02*
X103833333Y-59954819D01*
X103833333Y-59954819D02*
X103500000Y-60335771D01*
X103500000Y-60335771D02*
X103642857Y-60335771D01*
X103642857Y-60335771D02*
X103738095Y-60383390D01*
X103738095Y-60383390D02*
X103785714Y-60431009D01*
X103785714Y-60431009D02*
X103833333Y-60526247D01*
X103833333Y-60526247D02*
X103833333Y-60764342D01*
X103833333Y-60764342D02*
X103785714Y-60859580D01*
X103785714Y-60859580D02*
X103738095Y-60907200D01*
X103738095Y-60907200D02*
X103642857Y-60954819D01*
X103642857Y-60954819D02*
X103357143Y-60954819D01*
X103357143Y-60954819D02*
X103261905Y-60907200D01*
X103261905Y-60907200D02*
X103214286Y-60859580D01*
X104214286Y-60050057D02*
X104261905Y-60002438D01*
X104261905Y-60002438D02*
X104357143Y-59954819D01*
X104357143Y-59954819D02*
X104595238Y-59954819D01*
X104595238Y-59954819D02*
X104690476Y-60002438D01*
X104690476Y-60002438D02*
X104738095Y-60050057D01*
X104738095Y-60050057D02*
X104785714Y-60145295D01*
X104785714Y-60145295D02*
X104785714Y-60240533D01*
X104785714Y-60240533D02*
X104738095Y-60383390D01*
X104738095Y-60383390D02*
X104166667Y-60954819D01*
X104166667Y-60954819D02*
X104785714Y-60954819D01*
X105119048Y-59954819D02*
X105738095Y-59954819D01*
X105738095Y-59954819D02*
X105404762Y-60335771D01*
X105404762Y-60335771D02*
X105547619Y-60335771D01*
X105547619Y-60335771D02*
X105642857Y-60383390D01*
X105642857Y-60383390D02*
X105690476Y-60431009D01*
X105690476Y-60431009D02*
X105738095Y-60526247D01*
X105738095Y-60526247D02*
X105738095Y-60764342D01*
X105738095Y-60764342D02*
X105690476Y-60859580D01*
X105690476Y-60859580D02*
X105642857Y-60907200D01*
X105642857Y-60907200D02*
X105547619Y-60954819D01*
X105547619Y-60954819D02*
X105261905Y-60954819D01*
X105261905Y-60954819D02*
X105166667Y-60907200D01*
X105166667Y-60907200D02*
X105119048Y-60859580D01*
X106690476Y-60954819D02*
X106119048Y-60954819D01*
X106404762Y-60954819D02*
X106404762Y-59954819D01*
X106404762Y-59954819D02*
X106309524Y-60097676D01*
X106309524Y-60097676D02*
X106214286Y-60192914D01*
X106214286Y-60192914D02*
X106119048Y-60240533D01*
X91547619Y-37474819D02*
X92166666Y-37474819D01*
X92166666Y-37474819D02*
X91833333Y-37855771D01*
X91833333Y-37855771D02*
X91976190Y-37855771D01*
X91976190Y-37855771D02*
X92071428Y-37903390D01*
X92071428Y-37903390D02*
X92119047Y-37951009D01*
X92119047Y-37951009D02*
X92166666Y-38046247D01*
X92166666Y-38046247D02*
X92166666Y-38284342D01*
X92166666Y-38284342D02*
X92119047Y-38379580D01*
X92119047Y-38379580D02*
X92071428Y-38427200D01*
X92071428Y-38427200D02*
X91976190Y-38474819D01*
X91976190Y-38474819D02*
X91690476Y-38474819D01*
X91690476Y-38474819D02*
X91595238Y-38427200D01*
X91595238Y-38427200D02*
X91547619Y-38379580D01*
X92595238Y-38379580D02*
X92642857Y-38427200D01*
X92642857Y-38427200D02*
X92595238Y-38474819D01*
X92595238Y-38474819D02*
X92547619Y-38427200D01*
X92547619Y-38427200D02*
X92595238Y-38379580D01*
X92595238Y-38379580D02*
X92595238Y-38474819D01*
X92976190Y-37474819D02*
X93642856Y-37474819D01*
X93642856Y-37474819D02*
X93214285Y-38474819D01*
X93880952Y-37474819D02*
X94214285Y-38474819D01*
X94214285Y-38474819D02*
X94547618Y-37474819D01*
X96119047Y-38474819D02*
X95642857Y-38474819D01*
X95642857Y-38474819D02*
X95642857Y-37474819D01*
X96452381Y-38474819D02*
X96452381Y-37808152D01*
X96452381Y-37474819D02*
X96404762Y-37522438D01*
X96404762Y-37522438D02*
X96452381Y-37570057D01*
X96452381Y-37570057D02*
X96500000Y-37522438D01*
X96500000Y-37522438D02*
X96452381Y-37474819D01*
X96452381Y-37474819D02*
X96452381Y-37570057D01*
X96928571Y-38474819D02*
X96928571Y-37474819D01*
X96928571Y-37474819D02*
X97309523Y-37474819D01*
X97309523Y-37474819D02*
X97404761Y-37522438D01*
X97404761Y-37522438D02*
X97452380Y-37570057D01*
X97452380Y-37570057D02*
X97499999Y-37665295D01*
X97499999Y-37665295D02*
X97499999Y-37808152D01*
X97499999Y-37808152D02*
X97452380Y-37903390D01*
X97452380Y-37903390D02*
X97404761Y-37951009D01*
X97404761Y-37951009D02*
X97309523Y-37998628D01*
X97309523Y-37998628D02*
X96928571Y-37998628D01*
X98071428Y-38474819D02*
X97976190Y-38427200D01*
X97976190Y-38427200D02*
X97928571Y-38379580D01*
X97928571Y-38379580D02*
X97880952Y-38284342D01*
X97880952Y-38284342D02*
X97880952Y-37998628D01*
X97880952Y-37998628D02*
X97928571Y-37903390D01*
X97928571Y-37903390D02*
X97976190Y-37855771D01*
X97976190Y-37855771D02*
X98071428Y-37808152D01*
X98071428Y-37808152D02*
X98214285Y-37808152D01*
X98214285Y-37808152D02*
X98309523Y-37855771D01*
X98309523Y-37855771D02*
X98357142Y-37903390D01*
X98357142Y-37903390D02*
X98404761Y-37998628D01*
X98404761Y-37998628D02*
X98404761Y-38284342D01*
X98404761Y-38284342D02*
X98357142Y-38379580D01*
X98357142Y-38379580D02*
X98309523Y-38427200D01*
X98309523Y-38427200D02*
X98214285Y-38474819D01*
X98214285Y-38474819D02*
X98071428Y-38474819D01*
D12*
%TO.C,ESP32-C3*%
X102610000Y-50009000D02*
X102610000Y-32864000D01*
X104515000Y-51914000D02*
X118485000Y-51914000D01*
X107005000Y-30959000D02*
X107008728Y-29948728D01*
X107508728Y-29449000D02*
X115504000Y-29449000D01*
X116004000Y-29949000D02*
X116004000Y-30959000D01*
D10*
X118485000Y-30959000D02*
X104515000Y-30959000D01*
X118485000Y-30959000D02*
X104515000Y-30959000D01*
D12*
X118485000Y-30959000D02*
X104515000Y-30959000D01*
X120390000Y-50009000D02*
X120390000Y-32864000D01*
X102610000Y-32864000D02*
G75*
G02*
X104515000Y-30959000I1905000J0D01*
G01*
X104515000Y-51914000D02*
G75*
G02*
X102610000Y-50009000I1J1905001D01*
G01*
X107008728Y-29948728D02*
G75*
G02*
X107508728Y-29449028I499972J-272D01*
G01*
X115504000Y-29449000D02*
G75*
G02*
X116004000Y-29949000I0J-500000D01*
G01*
X118485000Y-30959000D02*
G75*
G02*
X120390000Y-32864000I0J-1905000D01*
G01*
X120390000Y-50009000D02*
G75*
G02*
X118485000Y-51914000I-1905001J1D01*
G01*
D13*
X102752000Y-31250000D02*
G75*
G02*
X102248000Y-31250000I-252000J0D01*
G01*
X102248000Y-31250000D02*
G75*
G02*
X102752000Y-31250000I252000J0D01*
G01*
X103895000Y-32130000D02*
G75*
G02*
X103391000Y-32130000I-252000J0D01*
G01*
X103391000Y-32130000D02*
G75*
G02*
X103895000Y-32130000I252000J0D01*
G01*
D14*
%TO.C,SSD1306*%
X93670000Y-45150000D02*
X93670000Y-52830000D01*
X93670000Y-45150000D02*
X96330000Y-45150000D01*
X93670000Y-52830000D02*
X96330000Y-52830000D01*
X95000000Y-42550000D02*
X96330000Y-42550000D01*
X96330000Y-42550000D02*
X96330000Y-43880000D01*
X96330000Y-45150000D02*
X96330000Y-52830000D01*
%TO.C,Set/Snooze/Stop*%
X131170000Y-56230000D02*
X131170000Y-48550000D01*
X131170000Y-58830000D02*
X131170000Y-57500000D01*
X132500000Y-58830000D02*
X131170000Y-58830000D01*
X133830000Y-48550000D02*
X131170000Y-48550000D01*
X133830000Y-56230000D02*
X131170000Y-56230000D01*
X133830000Y-56230000D02*
X133830000Y-48550000D01*
%TO.C,KY-040*%
X113050000Y-56170000D02*
X113050000Y-58830000D01*
X123270000Y-56170000D02*
X113050000Y-56170000D01*
X123270000Y-56170000D02*
X123270000Y-58830000D01*
X123270000Y-58830000D02*
X113050000Y-58830000D01*
X125870000Y-57500000D02*
X125870000Y-58830000D01*
X125870000Y-58830000D02*
X124540000Y-58830000D01*
D10*
%TO.C,9042 Buzzer*%
X134500000Y-36000000D02*
G75*
G02*
X125500000Y-36000000I-4500000J0D01*
G01*
X125500000Y-36000000D02*
G75*
G02*
X134500000Y-36000000I4500000J0D01*
G01*
D14*
%TO.C,DS3231*%
X93670000Y-56170000D02*
X95000000Y-56170000D01*
X93670000Y-57500000D02*
X93670000Y-56170000D01*
X96270000Y-56170000D02*
X109030000Y-56170000D01*
X96270000Y-58830000D02*
X96270000Y-56170000D01*
X96270000Y-58830000D02*
X109030000Y-58830000D01*
X109030000Y-58830000D02*
X109030000Y-56170000D01*
%TO.C,3.7V LiPo*%
X93645000Y-33980000D02*
X93645000Y-31380000D01*
X93645000Y-36580000D02*
X93645000Y-35250000D01*
X94975000Y-36580000D02*
X93645000Y-36580000D01*
X96305000Y-31380000D02*
X93645000Y-31380000D01*
X96305000Y-33980000D02*
X93645000Y-33980000D01*
X96305000Y-33980000D02*
X96305000Y-31380000D01*
%TD*%
M02*
